<svg xmlns="http://www.w3.org/2000/svg" viewBox="0 0 200 200" width="200" height="200">
  <rect width="200" height="200" fill="white" rx="8"/>
  <!-- QR-like pattern -->
  <g fill="#1e293b">
    <rect x="20" y="20" width="40" height="40" rx="4"/>
    <rect x="20" y="20" width="16" height="16" rx="2"/>
    <rect x="44" y="20" width="16" height="16" rx="2"/>
    <rect x="20" y="44" width="16" height="16" rx="2"/>
    <rect x="140" y="20" width="40" height="40" rx="4"/>
    <rect x="140" y="20" width="16" height="16" rx="2"/>
    <rect x="164" y="20" width="16" height="16" rx="2"/>
    <rect x="140" y="44" width="16" height="16" rx="2"/>
    <rect x="20" y="140" width="40" height="40" rx="4"/>
    <rect x="20" y="140" width="16" height="16" rx="2"/>
    <rect x="44" y="140" width="16" height="16" rx="2"/>
    <rect x="20" y="164" width="16" height="16" rx="2"/>
    <!-- Data dots -->
    <rect x="80" y="20" width="8" height="8" rx="1"/>
    <rect x="92" y="20" width="8" height="8" rx="1"/>
    <rect x="104" y="20" width="8" height="8" rx="1"/>
    <rect x="80" y="32" width="8" height="8" rx="1"/>
    <rect x="92" y="32" width="8" height="8" rx="1"/>
    <rect x="80" y="44" width="8" height="8" rx="1"/>
    <rect x="104" y="44" width="8" height="8" rx="1"/>
    <rect x="80" y="80" width="8" height="8" rx="1"/>
    <rect x="92" y="80" width="8" height="8" rx="1"/>
    <rect x="104" y="80" width="8" height="8" rx="1"/>
    <rect x="80" y="92" width="8" height="8" rx="1"/>
    <rect x="92" y="92" width="8" height="8" rx="1"/>
    <rect x="80" y="104" width="8" height="8" rx="1"/>
    <rect x="104" y="104" width="8" height="8" rx="1"/>
    <rect x="80" y="140" width="8" height="8" rx="1"/>
    <rect x="92" y="140" width="8" height="8" rx="1"/>
    <rect x="80" y="152" width="8" height="8" rx="1"/>
    <rect x="92" y="152" width="8" height="8" rx="1"/>
    <rect x="104" y="152" width="8" height="8" rx="1"/>
    <rect x="104" y="140" width="8" height="8" rx="1"/>
    <rect x="116" y="80" width="8" height="8" rx="1"/>
    <rect x="128" y="80" width="8" height="8" rx="1"/>
    <rect x="140" y="80" width="8" height="8" rx="1"/>
    <rect x="116" y="92" width="8" height="8" rx="1"/>
    <rect x="128" y="92" width="8" height="8" rx="1"/>
    <rect x="140" y="92" width="8" height="8" rx="1"/>
    <rect x="128" y="104" width="8" height="8" rx="1"/>
    <rect x="140" y="104" width="8" height="8" rx="1"/>
    <rect x="116" y="116" width="8" height="8" rx="1"/>
    <rect x="128" y="116" width="8" height="8" rx="1"/>
    <rect x="116" y="140" width="8" height="8" rx="1"/>
    <rect x="128" y="140" width="8" height="8" rx="1"/>
    <rect x="140" y="152" width="8" height="8" rx="1"/>
    <rect x="152" y="140" width="8" height="8" rx="1"/>
    <rect x="164" y="140" width="8" height="8" rx="1"/>
    <rect x="152" y="164" width="8" height="8" rx="1"/>
    <rect x="164" y="164" width="8" height="8" rx="1"/>
  </g>
</svg>
